<?xml version="1.0" encoding="UTF-8" standalone="no"?>
<!-- Created with Inkscape (http://www.inkscape.org/) -->

<svg
   xmlns:dc="http://purl.org/dc/elements/1.1/"
   xmlns:cc="http://creativecommons.org/ns#"
   xmlns:rdf="http://www.w3.org/1999/02/22-rdf-syntax-ns#"
   xmlns:svg="http://www.w3.org/2000/svg"
   xmlns="http://www.w3.org/2000/svg"
   xmlns:sodipodi="http://sodipodi.sourceforge.net/DTD/sodipodi-0.dtd"
   xmlns:inkscape="http://www.inkscape.org/namespaces/inkscape"
   width="80mm"
   height="80mm"
   viewBox="0 0 283.46456 283.46456"
   id="svg2"
   version="1.1"
   inkscape:version="0.91 r13725"
   sodipodi:docname="logo.svg">
  <defs
     id="defs4" />
  <sodipodi:namedview
     id="base"
     pagecolor="#ffffff"
     bordercolor="#666666"
     borderopacity="1.0"
     inkscape:pageopacity="0.0"
     inkscape:pageshadow="2"
     inkscape:zoom="1.4142136"
     inkscape:cx="240.40573"
     inkscape:cy="199.75444"
     inkscape:document-units="px"
     inkscape:current-layer="layer1"
     showgrid="false"
     showguides="true"
     inkscape:guide-bbox="true"
     inkscape:window-width="1855"
     inkscape:window-height="1056"
     inkscape:window-x="65"
     inkscape:window-y="24"
     inkscape:window-maximized="1" />
  <metadata
     id="metadata7">
    <rdf:RDF>
      <cc:Work
         rdf:about="">
        <dc:format>image/svg+xml</dc:format>
        <dc:type
           rdf:resource="http://purl.org/dc/dcmitype/StillImage" />
        <dc:title></dc:title>
      </cc:Work>
    </rdf:RDF>
  </metadata>
  <g
     inkscape:label="Layer 1"
     inkscape:groupmode="layer"
     id="layer1"
     transform="translate(0,-768.92204)">
    <g
       id="g4276"
       transform="matrix(1.3783785,0,0,1.3783785,-7.0586142,763.60441)">
      <circle
         r="102.783"
         cy="106.70792"
         cx="108.0358"
         id="path4181"
         style="fill:#000000;fill-opacity:1;fill-rule:evenodd;stroke:none;stroke-width:1px;stroke-linecap:butt;stroke-linejoin:miter;stroke-opacity:1" />
      <circle
         r="89.651024"
         cy="106.20284"
         cx="109.02565"
         id="path4183"
         style="fill:#fd0000;fill-opacity:1;stroke:none" />
      <circle
         r="73.741135"
         cy="106.45532"
         cx="108.28835"
         id="path4185"
         style="fill:#c6d900;fill-opacity:1;stroke:none" />
      <path
         inkscape:connector-curvature="0"
         id="path4191"
         d="m 93.799047,80.576099 7.828683,-16.41498 c 0,0 3.03046,-4.29315 5.80838,-4.29315 2.77792,0 4.54568,4.79822 4.04061,7.82868 -0.50508,3.03046 -0.50508,5.55584 1.26269,10.10153 1.76776,4.54569 6.06091,11.36421 6.06091,11.36421 0,0 -11.86929,-7.57614 -25.001273,-8.58629 z"
         style="fill:#000000;fill-opacity:1;fill-rule:evenodd;stroke:none;stroke-width:1px;stroke-linecap:butt;stroke-linejoin:miter;stroke-opacity:1" />
      <path
         sodipodi:nodetypes="csscc"
         inkscape:connector-curvature="0"
         id="path4201"
         d="m 139.98189,103.4249 c 0,0 2.39911,-2.0203 5.17703,-5.303299 2.77792,-3.282996 4.79823,5.177029 7.19734,5.303299 2.39911,0.12627 -5.93465,0.50507 -5.93465,0.50507 z"
         style="fill:#000000;fill-opacity:1;fill-rule:evenodd;stroke:none;stroke-width:1px;stroke-linecap:butt;stroke-linejoin:miter;stroke-opacity:1" />
      <path
         inkscape:connector-curvature="0"
         id="path4203"
         d="m 170.85006,103.31287 c 0,0 1.26269,-1.13642 3.6618,-5.934654 2.39912,-4.798224 12.62691,-22.223356 15.78364,-23.864854 3.15672,-1.641498 3.03046,0.883884 2.77792,3.788072 -0.25254,2.904189 -4.54569,24.243666 -4.54569,24.243666 l 0.63135,3.6618 c 0,0 1.26269,5.80838 4.29314,8.5863 3.03046,2.77792 3.66181,8.20749 3.66181,8.20749 0,0 2.52538,0.12627 3.15672,3.91434 0.63135,3.78807 -0.12626,3.78807 -0.12626,3.78807 0,0 -10.48034,-2.65165 -17.04633,-10.48033 -6.56599,-7.82868 -9.84899,-6.69226 -9.84899,-6.69226 0,0 -8.9651,2.27284 -12.75317,5.05076 -3.78807,2.77792 -10.48034,6.06092 -13.51079,6.18718 -3.03046,0.12627 -4.9245,-0.63134 -4.9245,-0.63134 0,0 -0.25253,-0.25254 -0.3788,-0.75762 -0.12627,-0.50507 -4.54568,0.25254 -5.17703,-1.64149 -0.63134,-1.89404 0.75762,-4.54569 0.75762,-4.54569 0,0 6.94479,-0.50508 8.71255,-2.52538 1.76777,-2.02031 -3.91434,-2.90419 -3.91434,-2.90419 0,0 -2.0203,0.63135 -3.6618,-1.13642 -1.64149,-1.76777 0.63135,-3.03046 0.63135,-3.03046 0,0 0.75761,1.51523 4.41941,1.6415 3.66181,0.12627 11.36422,0.63134 17.93021,-0.63135 6.56599,-1.26269 16.92006,-3.28299 16.92006,-3.28299 z"
         style="fill:#000000;fill-opacity:1;fill-rule:evenodd;stroke:none;stroke-width:1px;stroke-linecap:butt;stroke-linejoin:miter;stroke-opacity:1" />
      <path
         sodipodi:nodetypes="ssscscsccccsscscssssscsccccccsscsscscssscsccs"
         inkscape:connector-curvature="0"
         id="path4207"
         d="m 33.748587,104.25156 c -6.07142,-5.000004 -9.10714,-12.857139 -7.76785,-16.874997 1.33928,-4.017857 5,-4.017857 11.60714,-5.446428 6.60714,-1.428576 11.51786,-0.08929 11.51786,-0.08929 0,0 4.64285,-1.696428 8.30357,-2.857143 3.66071,-1.160714 10.13393,0.714286 10.13393,0.714286 -18.88393,1.071429 -15.66965,5.178572 -19.77679,4.464286 -4.10714,-0.714285 -14.01786,1.205357 -14.01786,1.205357 l 8.03572,5.491071 0.53571,-2.589285 2.32143,-0.446429 c 0,0 9.91072,9.821429 13.83929,9.910714 3.92857,0.08929 10.89285,-1.339285 14.82143,-0.178571 3.92857,1.160715 4.55357,3.749999 4.55357,3.749999 0,0 0.0893,1.875 -2.5,1.25 -2.58929,-0.625 -1.42857,1.96428 -1.42857,1.96428 0,0 0.625,1.42858 -1.78572,1.78572 -2.41071,0.35714 -5.71428,0.80357 -4.82143,2.76786 0.89286,1.96428 8.03572,10.08928 15.98215,9.91071 7.94642,-0.17857 13.21428,-1.60714 15.26785,-5.89286 2.053573,-4.28571 2.589293,-6.16071 2.678573,-7.76785 0.0893,-1.60715 1.875,-4.28572 1.875,-4.28572 0,0 1.33929,1.33929 1.51786,2.23214 0.17857,0.89286 2.67857,-1.42857 2.67857,-1.42857 l 10,5.17857 2.14286,9.82143 26.16071,5.26786 13.66072,2.85714 17.85714,4.73215 c 0,0 3.30357,2.41071 1.96429,2.85714 -1.33929,0.44643 -2.67857,1.33928 -6.25,0.89286 -3.57143,-0.44643 -45.89286,-3.92858 -45.89286,-3.92858 0,0 1.33929,3.21429 -0.625,3.75 -1.96429,0.53572 -8.21429,3.125 -14.10714,3.21429 -5.89286,0.0893 -8.48215,-1.78571 -8.48215,-1.78571 0,0 -10.625003,-3.92858 -13.750003,-2.5 -3.125,1.42857 -20.35714,10.89285 -20.35714,10.89285 0,0 -6.16071,3.92857 -8.03571,4.19643 -1.875,0.26786 -5.17857,0.625 -4.64286,-1.60714 0.53571,-2.23214 5.89286,-12.94643 8.21429,-14.64286 2.32142,-1.69643 3.48214,-3.83928 3.48214,-3.83928 0,0 -8.57143,-2.14286 -13.48214,-4.91072 -4.91072,-2.76786 -6.78572,-6.78571 -6.78572,-6.78571 l -2.45536,-3.48215 c -0.84821,-0.26785 -6.11607,-2.76785 -12.1875,-7.76785 z"
         style="fill:#000000;fill-opacity:1;fill-rule:evenodd;stroke:none;stroke-width:0.2;stroke-linecap:butt;stroke-linejoin:miter;stroke-miterlimit:4;stroke-dasharray:none;stroke-opacity:1" />
      <path
         sodipodi:nodetypes="cssssscsssssscccccccccsccsscscscssccsccsccc"
         inkscape:connector-curvature="0"
         id="path4193"
         d="m 43.505847,83.649246 c 0,0 2.77791,1.01015 6.06091,-0.25254 3.283,-1.26269 8.71257,-3.535533 10.98541,-3.788073 2.27284,-0.25254 35.73415,-1.89404 46.593293,2.651651 10.85914,4.54569 18.59886,14.705178 30.9359,17.172592 12.31124,2.462254 25.82203,5.240164 30.62026,3.977474 4.79822,-1.26269 10.0384,1.13643 10.0384,1.13643 0,0 -11.17482,2.20971 -20.70814,3.6618 -8.98771,1.36899 -16.17392,0.11218 -17.67767,-0.63134 -1.89726,-0.9381 -2.20971,-0.1894 -2.20971,0.82075 0,1.01015 0.88388,2.08344 4.41942,2.33598 3.53553,0.25253 7.70241,2.08343 0.12627,4.86135 -7.57614,2.77792 -5.74823,1.50201 -5.66632,3.58289 0.0789,2.00452 -2.63311,0.77325 -2.63311,0.77325 l -1.81821,-0.36705 c -3.58141,-0.69426 -8.65191,-1.40747 -9.62753,-1.40429 -4.43332,1.23036 -8.38033,-0.21415 -13.30358,-1.60715 l 2.05358,-8.66071 -2.80934,-4.72843 c -0.74093,0.81675 -2.62782,0.7621 -3.22827,0.61002 -2.05357,-0.53572 -1.51571,-0.34051 -1.51571,-0.34051 l -2.27675,4.26352 c 0,0 0.36578,7.78469 -9.009223,10.28469 -9.375,2.5 -19.52803,1.32483 -24.48339,-6.80018 l 0.002,-8.5e-4 c 0,0 -1.20666,-1.28064 -1.52868,-2.57396 -0.19889,-0.79879 -1.07329,-1.14091 3.39099,-2.65877 4.46429,-1.51786 2.94194,-1.66393 2.94194,-1.66393 0,0 0.028,-1.25634 -5.59699,-0.80991 -5.625,0.44642 -17.40436,7.18618 -17.40436,7.18618 0,0 2.11253,-3.10377 8.54264,-5.49873 5.92984,-2.20863 13.38466,-3.52548 13.38466,-3.52548 0,0 8.95286,2.59115 3.41715,-1.873144 -5.53571,-4.464285 -3.65437,-0.95599 -14.19009,-1.58099 -10.53571,-0.625 -17.03825,-10.241704 -17.03825,-10.241704 l -1.52683,0.577187 c 0,0 0.35264,2.526145 -0.89735,2.526145 -1.25,0 -1.62432,-0.564486 -1.62432,-0.564486 l -1.35909,-1.042654 c 0,0 -0.73145,-0.403095 -1.44575,-1.117385 -0.71429,-0.71428 -3.95209,-3.098081 -3.95209,-3.098081 l 3.3053,-0.876476 z"
         style="fill:#9a9a9a;fill-opacity:1;fill-rule:evenodd;stroke:none;stroke-width:1px;stroke-linecap:butt;stroke-linejoin:miter;stroke-opacity:1" />
      <path
         inkscape:connector-curvature="0"
         id="path4205"
         d="m 60.311097,91.706917 c 0,0 -1.51786,-0.178572 -2.5,-2.678572 -0.98215,-2.5 -0.26786,-4.196428 0.71428,-5.178571 0.98214,-0.982143 2.67857,-0.714286 3.66072,1.071429 0.98214,1.785714 1.33928,4.107142 0.53571,5.357142 -0.80357,1.25 -1.25,1.517858 -2.41071,1.428572 z"
         style="fill:#000000;fill-opacity:1;fill-rule:evenodd;stroke:none;stroke-width:1px;stroke-linecap:butt;stroke-linejoin:miter;stroke-opacity:1" />
      <rect
         transform="matrix(0.8353867,0.54966269,-0.54966269,0.8353867,0,0)"
         y="-51.07766"
         x="146.79254"
         height="163.0439"
         width="12.249949"
         id="rect4187"
         style="fill:#ff0000;fill-opacity:1;stroke:none" />
    </g>
  </g>
</svg>
